<svg width="97" height="81" fill="none" xmlns="http://www.w3.org/2000/svg"><path d="M40.843.356c1 3 1.5 5.5 1.5 7.5 0 1.8-.3 4.2-.9 7.2-13.4 0-20.1 6.9-20.1 20.7 0 5 2.6 7.8 7.8 8.4 7.6.6 11.4 5.5 11.4 14.7 0 7-1.7 12.4-5.1 16.2-3.2 3.6-9.1 5.4-17.7 5.4-11.8 0-17.7-8-17.7-24s3.2-29.3 9.6-39.9c6.4-10.8 16.8-16.2 31.2-16.2zm54.3 0c1 3 1.5 5.5 1.5 7.5 0 1.8-.3 4.2-.9 7.2-13.4 0-20.1 6.9-20.1 20.7 0 5 2.6 7.8 7.8 8.4 7.6.6 11.4 5.5 11.4 14.7 0 7-1.7 12.4-5.1 16.2-3.2 3.6-9.1 5.4-17.7 5.4-11.8 0-17.7-8-17.7-24s3.2-29.3 9.6-39.9c6.4-10.8 16.8-16.2 31.2-16.2z" fill="#fff"/></svg>